<svg xmlns="http://www.w3.org/2000/svg" xmlns:xlink="http://www.w3.org/1999/xlink" viewBox="0 0 1000 800"><defs><linearGradient id="d" x1="206.91" x2="345.31" y1="378.63" y2="383.12" gradientUnits="userSpaceOnUse"><stop offset="0" stop-color="#055974"/><stop offset="1" stop-color="#22b578"/></linearGradient><linearGradient id="f" x1="-365.56" x2="34.88" y1="336.7" y2="166.19" gradientTransform="rotate(-33.9 540.44 -706.33)" gradientUnits="userSpaceOnUse"><stop offset="0" stop-color="#1a743a"/><stop offset="1" stop-color="#49b749"/></linearGradient><linearGradient id="a" x1="289.44" x2="683.75" y1="758.34" y2="441.34" gradientUnits="userSpaceOnUse"><stop offset="0" stop-color="#a16127"/><stop offset="1" stop-color="#faa748"/></linearGradient><linearGradient id="g" x1="297.92" x2="702.47" y1="588.53" y2="588.53" xlink:href="#a"/><linearGradient id="b" x1="1856.88" x2="1858.17" y1="308.08" y2="333.08" gradientTransform="translate(-1572.62)" gradientUnits="userSpaceOnUse"><stop offset="0" stop-color="#ef877e"/><stop offset="1" stop-color="#fabeb2"/></linearGradient><linearGradient id="h" x1="1313.71" x2="1307.52" y1="680.48" y2="702.13" gradientTransform="rotate(-2.77 1447.946 21349.687)" xlink:href="#b"/><linearGradient id="c" x1="1874.34" x2="1875.5" y1="742.26" y2="424.43" gradientTransform="translate(-1572.62)" gradientUnits="userSpaceOnUse"><stop offset="0" stop-color="#035d32"/><stop offset="1" stop-color="#1c2a59"/></linearGradient><linearGradient id="i" x1="2840.79" x2="2841.74" y1="780.31" y2="791.62" gradientTransform="scale(-1 1) rotate(-7 869.547 26404.758)" xlink:href="#b"/><linearGradient id="j" x1="1870.39" x2="1871.55" y1="742.25" y2="424.41" xlink:href="#c"/><linearGradient id="k" x1="1841.83" x2="1842.99" y1="742.14" y2="424.31" xlink:href="#c"/><linearGradient id="l" x1="269.21" x2="286.94" y1="473.46" y2="357.9" xlink:href="#d"/><linearGradient id="m" x1="297.74" x2="315.5" y1="477.83" y2="362.09" xlink:href="#d"/><linearGradient id="n" x1="1902.6" x2="1894.15" y1="725.38" y2="746.08" xlink:href="#c"/><linearGradient id="o" x1="1816.09" x2="1815.88" y1="740.91" y2="754.08" xlink:href="#c"/><linearGradient id="e" x1="230.28" x2="263.06" y1="309.91" y2="234.12" gradientTransform="matrix(-.97 .24 .24 .97 448.08 -53.47)" gradientUnits="userSpaceOnUse"><stop offset="0" stop-color="#5a1f0d"/><stop offset="1" stop-color="#b84726"/></linearGradient><linearGradient id="p" x1="5454.46" x2="5461.36" y1="568.88" y2="633.05" gradientTransform="matrix(.95 -.1 .12 .85 -4978.16 335.3)" xlink:href="#b"/><linearGradient id="q" x1="223.02" x2="255.87" y1="307.18" y2="231.25" xlink:href="#e"/><linearGradient id="r" x1="272.85" x2="290.62" y1="474.05" y2="358.25" xlink:href="#d"/><linearGradient id="s" x1="-827.72" x2="-424.83" y1="19.26" y2="-152.29" gradientTransform="rotate(12.84 -2672.983 4043.705)" xlink:href="#f"/><linearGradient id="t" x1="-230.34" x2="-63.54" y1="998.74" y2="894.55" gradientTransform="rotate(102.1 257.537 834.245)" xlink:href="#b"/><linearGradient id="u" x1="-232.69" x2="-66.42" y1="994.07" y2="890.21" gradientTransform="rotate(102.1 257.537 834.245)" xlink:href="#b"/><linearGradient id="v" x1="-235.16" x2="-68.82" y1="990.22" y2="886.32" gradientTransform="rotate(102.1 257.537 834.245)" xlink:href="#b"/><linearGradient id="w" x1="-237.83" x2="-71.38" y1="986.12" y2="882.14" gradientTransform="rotate(102.1 257.537 834.245)" xlink:href="#b"/><linearGradient id="x" x1="-236.82" x2="-69.6" y1="989.19" y2="884.73" gradientTransform="rotate(102.1 257.537 834.245)" xlink:href="#b"/><linearGradient id="y" x1="2807.61" x2="2807.8" y1="4004.98" y2="4004.86" gradientTransform="matrix(-.96 .29 .29 .96 1771.89 -4178.27)" xlink:href="#b"/><linearGradient id="z" x1="2806.72" x2="2807.99" y1="4005.54" y2="4004.75" gradientTransform="matrix(-.96 .29 .29 .96 1771.89 -4178.27)" xlink:href="#b"/><linearGradient id="A" x1="235.46" x2="253.14" y1="468.05" y2="352.77" xlink:href="#d"/><linearGradient id="B" x1="226.31" x2="243.99" y1="466.65" y2="351.43" xlink:href="#d"/><linearGradient id="C" x1="512.1" x2="677.57" y1="325.67" y2="157.52" xlink:href="#f"/><linearGradient id="D" x1="636.16" x2="887.66" y1="747.22" y2="491.63" xlink:href="#f"/><linearGradient id="E" x1="62.65" x2="147.12" y1="337.1" y2="251.25" gradientTransform="rotate(-.1 86.349 -464.02)" xlink:href="#f"/></defs><g data-name="Layer 1"><g data-name="2"><g opacity=".5"><path fill="#84c551" d="M888.83 745.84c20.89 17.69-798.55 17.69-777.65 0-20.9-17.69 798.54-17.69 777.65 0Z" opacity=".5"/><g opacity=".3"><path fill="#84c551" d="M857.62 390.29c-8 465.89-707.19 465.82-715.1 0 7.97-465.9 707.19-465.82 715.1 0Z" opacity=".8"/><path fill="#84c551" d="M429.8 536.48c-4.68 273-414.36 272.93-419 0 4.68-272.97 414.36-272.93 419 0Zm140.4 0c4.68 273 414.36 272.93 419 0-4.68-272.97-414.36-272.93-419 0Z" opacity=".6"/><path fill="#84c551" d="M702.13 325c3.2 187 283.89 187 287.06 0-3.19-187-283.89-186.95-287.06 0Zm-404.26 0c-3.2 187-283.89 187-287.06 0C14 138 294.7 138.05 297.87 325Z" opacity=".5"/></g></g><g opacity=".3"><rect width="125.82" height="124.73" x="744.42" y="619.93" fill="#59bc6e" rx="6.03"/><rect width="62.91" height="62.36" x="870.24" y="682.3" fill="#59bc6e" rx="6.03"/></g><path fill="url(#d)" d="m352.46 418.58-13.17 3.9s-32-40.47-38.48-55.27c-5.81-13.3-8.24-17.85-8.24-17.85l17.15-6.69a3.25 3.25 0 0 1 4.24 1.94c2.9 7.09 8.13 21.31 12.07 30.16 8.97 14.74 26.87 44.17 26.43 43.81Z"/><path fill="url(#f)" d="M689.58 453.13 427.19 628.37a8.18 8.18 0 0 1-11.29-2.18l-98.08-144.31a8 8 0 0 1 2.18-11.19l262.41-175.24a8.18 8.18 0 0 1 11.29 2.18l98.08 144.31a8 8 0 0 1-2.2 11.19Z"/><path fill="#0f8542" d="M666.23 447.16 430.38 604.68a7.16 7.16 0 0 1-9.88-1.91l-79.06-116.32a7 7 0 0 1 1.93-9.8l235.85-157.51a7.17 7.17 0 0 1 9.88 1.9l79.06 116.33a7 7 0 0 1-1.93 9.79Zm-319.45 34.51c-2.6 1.41 79.07 116.36 78.78 117.73 1.7 1.2 238-156.63 237.54-158.65L584 324.42c-1.4-2.54-235.83 157.5-237.22 157.25Z" opacity=".5"/><path d="M535.16 441.64c26.23 40.25-33.38 79.52-60.72 40.54-26.23-40.26 33.38-79.52 60.72-40.54Z" style="mix-blend-mode:multiply" fill="#0f8542" opacity=".5"/><path fill="url(#a)" d="M702.21 455.43c-3.78 9 9.49 286-8.53 283.94a22.54 22.54 0 0 1-12.76 4.75c-.36.69-359.9-.43-360.55 0a22.35 22.35 0 0 1-22.45-22.25c.48-1.45-.38-266.35 0-267.62a22 22 0 0 1 4.77-12.6 22.47 22.47 0 0 1 17.65-8.5h359.4a22.35 22.35 0 0 1 22.47 22.28Z"/><path fill="#925827" d="M651 714h-5.81a1.7 1.7 0 1 1 0-3.4H651a1.7 1.7 0 1 1 0 3.4Zm-16.84 0h-5.74a1.7 1.7 0 1 1 0-3.4h5.74a1.7 1.7 0 1 1-.05 3.4Zm-16.78 0h-5.78a1.7 1.7 0 1 1 0-3.4h5.73a1.7 1.7 0 1 1 0 3.4Zm-16.77 0h-5.73a1.7 1.7 0 1 1 0-3.4h5.73a1.7 1.7 0 1 1-.05 3.4Zm-16.77 0h-5.73a1.7 1.7 0 1 1 0-3.4h5.73a1.7 1.7 0 1 1-.05 3.4ZM567 714h-5.74a1.7 1.7 0 1 1 0-3.4H567a1.7 1.7 0 1 1 0 3.4Zm-16.77 0h-5.74a1.7 1.7 0 1 1 0-3.4h5.74a1.7 1.7 0 1 1 .02 3.4Zm-16.77 0h-5.74a1.7 1.7 0 1 1 0-3.4h5.74a1.7 1.7 0 1 1 .02 3.4Zm-16.77 0H511a1.7 1.7 0 1 1 0-3.4h5.74a1.7 1.7 0 1 1-.03 3.4Zm-16.77 0h-5.72a1.7 1.7 0 1 1 0-3.4h5.74a1.7 1.7 0 1 1 0 3.4Zm-16.77 0h-5.74a1.7 1.7 0 1 1 0-3.4h5.74a1.7 1.7 0 1 1 .02 3.4Zm-16.77 0h-5.74a1.7 1.7 0 1 1 0-3.4h5.74a1.7 1.7 0 1 1 .02 3.4Zm-16.77 0h-5.74a1.7 1.7 0 1 1 0-3.4h5.74a1.7 1.7 0 1 1 .02 3.4Zm-16.78 0h-5.73a1.7 1.7 0 1 1 0-3.4h5.73a1.7 1.7 0 1 1 .02 3.4Zm-16.77 0h-5.73a1.7 1.7 0 1 1 0-3.4h5.73a1.7 1.7 0 1 1 .02 3.4Zm-16.77 0h-5.73a1.7 1.7 0 1 1 0-3.4h5.73a1.7 1.7 0 1 1 .02 3.4Zm-16.77 0h-5.72a1.7 1.7 0 1 1 0-3.4h5.74a1.7 1.7 0 1 1 0 3.4Zm-16.77 0H360a1.7 1.7 0 1 1 0-3.4h5.74a1.7 1.7 0 1 1 .03 3.4ZM349 714c-2.26-.36-7.71.19-7.3-3.16 1.43-2.63 5 .31 7.32-.24a1.7 1.7 0 0 1-.02 3.4Zm312.33-3.11a1.71 1.71 0 0 1-1-3.11c2.28-.82 3.59-5.16 6.24-3.71 2.34 2.4-3.21 6.16-5.24 6.86ZM334.53 707c-2.47-.56-3.37-3.94-4.39-6-.8-2.09 2.59-3.22 3.3-1.15.33 2.29 5.33 6.23 1.09 7.15Zm334.86-9.67c-1.66 0-1.9-1.63-1.72-2.93.26-1.5-1-6.11 1.76-6 2.72-.1 1.5 4.51 1.76 6 .1 1.29-.19 2.95-1.8 2.93Zm-338.68-5.72a1.73 1.73 0 0 1-1.76-1.7c.37-1.55-1.19-7.39 1.76-7.25a1.73 1.73 0 0 1 1.76 1.7c-.37 1.55 1.18 7.39-1.76 7.25Zm338.72-10.49a1.73 1.73 0 0 1-1.76-1.7c.37-1.54-1.18-7.39 1.76-7.25a1.73 1.73 0 0 1 1.76 1.7c-.37 1.55 1.18 7.39-1.76 7.25Zm-338.72-5.73a1.73 1.73 0 0 1-1.76-1.7c.37-1.54-1.19-7.39 1.76-7.24a1.73 1.73 0 0 1 1.76 1.7c-.37 1.54 1.18 7.39-1.76 7.24Zm338.72-10.49a1.73 1.73 0 0 1-1.76-1.7c.37-1.54-1.18-7.39 1.76-7.24a1.73 1.73 0 0 1 1.76 1.7c-.37 1.54 1.18 7.39-1.76 7.24Zm-338.72-5.72a1.74 1.74 0 0 1-1.76-1.7c.37-1.55-1.19-7.4 1.76-7.25a1.73 1.73 0 0 1 1.76 1.7c-.37 1.54 1.18 7.39-1.76 7.25Zm338.72-10.49a1.73 1.73 0 0 1-1.76-1.7c.37-1.55-1.18-7.39 1.76-7.25a1.73 1.73 0 0 1 1.76 1.7c-.37 1.56 1.18 7.39-1.76 7.25ZM330.71 643a1.73 1.73 0 0 1-1.76-1.7c.37-1.54-1.19-7.39 1.76-7.25a1.73 1.73 0 0 1 1.76 1.7c-.37 1.51 1.18 7.35-1.76 7.25Zm338.72-10.49a1.73 1.73 0 0 1-1.76-1.7c.37-1.54-1.18-7.39 1.76-7.25a1.74 1.74 0 0 1 1.76 1.7c-.37 1.51 1.18 7.36-1.76 7.21Zm-338.72-5.73A1.73 1.73 0 0 1 329 625c.37-1.54-1.19-7.39 1.76-7.24a1.73 1.73 0 0 1 1.76 1.7c-.42 1.54 1.13 7.43-1.81 7.28Zm338.72-10.49a1.73 1.73 0 0 1-1.76-1.69c.37-1.55-1.18-7.4 1.76-7.25a1.73 1.73 0 0 1 1.76 1.7c-.37 1.5 1.18 7.35-1.76 7.2Zm-338.72-5.72a1.73 1.73 0 0 1-1.76-1.7c.37-1.55-1.19-7.39 1.76-7.25a1.73 1.73 0 0 1 1.76 1.7c-.37 1.5 1.18 7.35-1.76 7.21ZM669.43 600a1.73 1.73 0 0 1-1.76-1.7c.37-1.55-1.18-7.39 1.76-7.25a1.73 1.73 0 0 1 1.76 1.7c-.37 1.59 1.18 7.43-1.76 7.25Zm-338.72-5.73a1.73 1.73 0 0 1-1.76-1.7c.37-1.54-1.19-7.39 1.76-7.25a1.74 1.74 0 0 1 1.76 1.7c-.37 1.59 1.18 7.44-1.76 7.29Zm338.72-10.49a1.73 1.73 0 0 1-1.76-1.7c.37-1.54-1.18-7.39 1.76-7.24a1.73 1.73 0 0 1 1.76 1.69c-.37 1.59 1.18 7.47-1.76 7.29Zm-338.72-5.73a1.73 1.73 0 0 1-1.71-1.65c.37-1.55-1.19-7.4 1.76-7.25a1.73 1.73 0 0 1 1.76 1.7c-.42 1.54 1.13 7.39-1.81 7.24Zm338.72-10.48a1.74 1.74 0 0 1-1.76-1.7c.37-1.55-1.18-7.4 1.76-7.25a1.73 1.73 0 0 1 1.76 1.7c-.37 1.58 1.18 7.43-1.76 7.29Zm-338.72-5.73a1.73 1.73 0 0 1-1.76-1.7c.37-1.55-1.19-7.39 1.76-7.25a1.73 1.73 0 0 1 1.76 1.7c-.37 1.59 1.18 7.41-1.76 7.29Zm338.72-10.49a1.73 1.73 0 0 1-1.76-1.7c.37-1.55-1.18-7.39 1.76-7.25a1.73 1.73 0 0 1 1.76 1.7c-.37 1.59 1.18 7.43-1.76 7.29Zm-338.72-5.73A1.73 1.73 0 0 1 329 544c.37-1.54-1.19-7.39 1.76-7.24a1.73 1.73 0 0 1 1.76 1.69c-.42 1.55 1.13 7.36-1.81 7.21Zm338.72-10.49a1.73 1.73 0 0 1-1.76-1.7c.37-1.54-1.18-7.39 1.76-7.24a1.73 1.73 0 0 1 1.76 1.7c-.37 1.58 1.18 7.43-1.76 7.28Zm-338.72-5.72a1.74 1.74 0 0 1-1.76-1.7c.37-1.55-1.19-7.4 1.76-7.25a1.73 1.73 0 0 1 1.76 1.7c-.37 1.58 1.18 7.43-1.76 7.29ZM669.43 519a1.73 1.73 0 0 1-1.76-1.7c.37-1.55-1.18-7.39 1.76-7.25a1.73 1.73 0 0 1 1.76 1.7c-.37 1.5 1.18 7.35-1.76 7.25Zm-338.72-5.73a1.73 1.73 0 0 1-1.76-1.7c.37-1.55-1.19-7.39 1.76-7.25a1.73 1.73 0 0 1 1.76 1.7c-.37 1.51 1.18 7.35-1.76 7.21Zm338.72-10.49a1.73 1.73 0 0 1-1.76-1.7c.37-1.54-1.18-7.39 1.76-7.25a1.73 1.73 0 0 1 1.76 1.7c-.37 1.47 1.18 7.36-1.76 7.21ZM330.71 497a1.73 1.73 0 0 1-1.76-1.7c.37-1.54-1.19-7.39 1.76-7.24a1.73 1.73 0 0 1 1.76 1.7c-.37 1.55 1.18 7.4-1.76 7.24Zm338.72-10.49c-2 0-1.81-2.24-1.76-3.59.27-1.77-1.47-4.63 1-5.29 2.79-.31 2.3 3.45 2.49 5.29.08 1.36.25 3.64-1.73 3.6Zm-338.3-5.69c-3.75-.72-.39-5.66.53-7.71 1.07-1.9 4.21-.23 3 1.7-1.6 1.72-.9 5.62-3.53 6.02Zm332.7-9.05c-2-.5-3.36-2.7-5.44-3.38a1.67 1.67 0 0 1-.78-2.28c1.69-3.28 11.87 4.63 6.22 5.67Zm-322.7-3.28c-6.57-2 6.58-7.56 7.19-3.57.02 2.79-5.21 2.33-7.19 3.58Zm307.32-1.81h-5.74a1.7 1.7 0 1 1 0-3.4h5.74a1.7 1.7 0 1 1 0 3.41Zm-16.77 0h-5.74a1.7 1.7 0 1 1 0-3.4h5.74a1.7 1.7 0 1 1 0 3.41Zm-16.77 0h-5.74a1.7 1.7 0 1 1 0-3.4h5.74a1.7 1.7 0 1 1 0 3.41Zm-16.77 0h-5.74a1.7 1.7 0 1 1 0-3.4h5.74a1.7 1.7 0 1 1 0 3.41Zm-16.77 0h-5.74a1.7 1.7 0 1 1 0-3.4h5.74a1.7 1.7 0 1 1 0 3.41Zm-16.77 0h-5.74a1.7 1.7 0 1 1 0-3.4h5.74a1.7 1.7 0 1 1 0 3.41Zm-16.77 0h-5.74a1.7 1.7 0 1 1 0-3.4h5.74a1.7 1.7 0 1 1 0 3.41Zm-16.78 0h-5.73a1.7 1.7 0 1 1 0-3.4h5.73a1.7 1.7 0 1 1 0 3.41Zm-16.77 0h-5.73a1.7 1.7 0 1 1 0-3.4h5.73a1.7 1.7 0 1 1 0 3.41Zm-16.77 0h-5.73a1.7 1.7 0 1 1 0-3.4h5.73a1.7 1.7 0 1 1 0 3.41Zm-16.77 0H475a1.7 1.7 0 1 1 0-3.4h5.74a1.7 1.7 0 1 1 0 3.41Zm-16.77 0h-5.74a1.7 1.7 0 1 1 0-3.4H464a1.7 1.7 0 1 1 0 3.41Zm-16.77 0h-5.74a1.7 1.7 0 1 1 0-3.4h5.74a1.7 1.7 0 1 1 0 3.41Zm-16.77 0h-5.74a1.7 1.7 0 1 1 0-3.4h5.74a1.7 1.7 0 1 1 0 3.41Zm-16.77 0h-5.74a1.7 1.7 0 1 1 0-3.4h5.74a1.7 1.7 0 1 1 0 3.41Zm-16.77 0h-5.74a1.7 1.7 0 1 1 0-3.4h5.74a1.7 1.7 0 1 1 0 3.41Zm-16.77 0h-5.74a1.7 1.7 0 1 1 0-3.4h5.74a1.7 1.7 0 1 1 0 3.41Zm-16.77 0h-5.74a1.7 1.7 0 1 1 0-3.4h5.74a1.7 1.7 0 1 1 0 3.41Z" opacity=".4"/><path d="M702.21 692.86c-1 14.27 5.17 42-12.44 49a22.51 22.51 0 0 1-10 2.32h-359.4a22.35 22.35 0 0 1-22.45-22.25v-266.5a22 22 0 0 1 3-11.07c7.35-16 35-10.21 48.74-11.18-25.83 0-30 20.78-30.53 30.15V700.9a22.35 22.35 0 0 0 22.44 22.25h329.85c9.28-.47 30.79-4.34 30.79-30.29Z" style="mix-blend-mode:multiply" fill="url(#g)" opacity=".2"/><path fill="url(#b)" d="M293.46 306.33s-3 27.15 5.59 30.55c0 0-13.32 14.2-26.95-6.63 0 0 2.72-14.28 0-25.46Z"/><path fill="url(#h)" d="M320.05 718.65s-.08 6.33 0 9.49c.05 1.39-14.81 8.18-18-1.34l2-7.61 12.35-4.37Z"/><path fill="url(#c)" d="M297.2 601.12c-7 37.49 5.32 117.89 6.93 118.07 9.78 4.77 15.92-.54 15.92-.54 2.34-35.14 17.47-221.75-1.73-260.22l-23.87-6.88c-5.69 7.22-12.76 17.34-16.48 33.26-5.22 27.01 15.03 94.39 19.23 116.31Z"/><path fill="url(#i)" d="M237.78 733.81s6.73 6.82 16 3a131.85 131.85 0 0 1 2.54-12.94c-3.42 1.17-9.38 1.9-17.34-2.06-.92 7.26-1.43 11.95-1.2 12Z"/><path d="M276.75 497.27c.53 21.62 16.56 88 20.45 103.85-3.74-16.48-7.1-83.29 4.92-113.84s17.81-18.86 17.81-18.86l.77-1.17a83.62 83.62 0 0 0-2.38-8.82l-23.87-6.88c-1.63 0-15.48 31.54-16.48 33.26a53.72 53.72 0 0 0-1.22 12.46Z" style="mix-blend-mode:multiply" fill="url(#j)" opacity=".5"/><path fill="url(#k)" d="M255.1 459.62s-16.81 32-11.19 98.79S240.83 706 239 721.85c3.77 12 17.34 2.06 17.34 2.06 18.52-51.33 29.13-190.52 42.85-259.74 10.67-43.37-44.09-4.55-44.09-4.55Z"/><path fill="url(#l)" d="M319.82 409.93c-1.68 15.47-3.76 34.3-1.5 48.5.21 2.43-38.13 12.26-63.23 1.19-6.17-23.82-11.28-48.57-13.71-73.16-.24-16.78-5.45-39.25 7.75-46.16 6.5-4.25 16.7-10.13 23-10 0 0 5.33 8.32 18.06 8.81 7.49 0 4.58-8.07 4.28-8.81 4.19 7.21 14.59 8 19.5 14.31 9.29 21.55 7.55 42.39 5.85 65.32Z"/><path d="m311.14 394.34-1.23.3a7.91 7.91 0 0 0 1.23-.3Z" style="mix-blend-mode:multiply" fill="url(#m)"/><path fill="#e6ddee" d="M272.3 329.08s-3.1.07-3.78 1.66 6.93 18 10.25 19.57 11.41-11.2 11.41-11.2-14.99-3.42-17.88-10.03Z"/><path fill="#e6ddee" d="M294.56 330.5s1.75 2.11 2.2 2.07 3 9.43.42 13.86c-3.05 5.19-7-7.32-7-7.32s5.9-.79 4.38-8.61Z"/><path fill="url(#n)" d="M349.76 744.18C315 745.89 298.93 743 298.93 743a29 29 0 0 1 3.19-16.24c7.7 9.45 25.21-5.11 37.39 1.1 6.58 2.24 10.42 9.9 10.25 16.32Z"/><path fill="url(#o)" d="M253.79 736.85c-.64-.39 8.06 12 1.21 12.79-5.44 1.69-25.5 3.54-25.86-4.08 1.05-3.16 3.6-9 8.64-11.75 0 0 5.48 4.19 16.01 3.04Z"/><path fill="url(#e)" d="M310 258.92s-20.05-25.14-44.5-10.29a20.61 20.61 0 0 0-10.38 12.52s-9.64-.15-10.18 14.85 18.82 35 18.82 35l8.1-37.43Z"/><path fill="url(#p)" d="M310.19 272.6c-6.35 16.84 10 37.23-13.64 53.58-7.05-1.13-34.88-3.35-36.46-28.15-1.15-4.19-7.47-6.09-5-13.1s5.83-2.65 5.83-2.65.49-5.36 1.27-9.87 48 .19 48 .19Z"/><path fill="url(#q)" d="M261 289.06s6.08 17.44 8.36 18.31c7.58-4.17-3.19-24.46 9.16-29.2 7.25-2.78 30.61 19 56.93-.17-8.15 3.06-17.3-5.49-20.43-12.17-14.86-30.89-65.32-8.14-54.02 23.23Z"/><path d="M277.55 460.45c-36.84-11.29-22.49-47.9-17.35-68.34a2.65 2.65 0 0 1 2.51-1.8c11.15 0 29.73-2.51 29.73-2.51a109.31 109.31 0 0 1-28.45-2c-2.95-.34.2-18.41-2.66-19.56-1-2.26-5.58 13.58-10.51 21.93-3.67 5.66-8.35 3.08-8.35 3.08.2 15.82 4.68 32.25 7.66 47.84 1.38 6.18 3.15 13.58 4.69 19.45.16.62.25.93.28 1.06 25 11.11 63.69 1.19 63.22-1.19-18.12 3.44-31.25 3.59-40.77 2.04Z" style="mix-blend-mode:multiply" fill="url(#r)" opacity=".5"/><path fill="url(#s)" d="m394.33 614.06-308.47-69.7a8.05 8.05 0 0 1-6.12-9.65l39-169.65a8.14 8.14 0 0 1 9.74-6.07L437 428.68a8.08 8.08 0 0 1 6.13 9.66L404.07 608a8.14 8.14 0 0 1-9.74 6.06Z"/><path fill="#0f8542" d="m382.74 593.1-277.27-62.64a7.06 7.06 0 0 1-5.36-8.45l31.44-136.76a7.14 7.14 0 0 1 8.52-5.31l277.28 62.65a7 7 0 0 1 5.35 8.41l-31.44 136.79a7.11 7.11 0 0 1-8.52 5.31Zm-244-207.26c-2.87-.89-31.42 136.76-32.66 137.52-.92 2.88 277.31 62.6 278 63.85 2.87.89 31.41-136.77 32.66-137.52.93-2.88-277.29-62.6-278.02-63.85Z" opacity=".5"/><path d="M297.1 494.59c-11.42 46.23-81.25 30.66-71.38-16.13 11.41-46.23 81.28-30.66 71.38 16.13Z" style="mix-blend-mode:multiply" fill="#0f8542" opacity=".5"/><path fill="url(#t)" d="M250.6 465.69a68.82 68.82 0 0 1 1.92 7.34c-1 1.56 14.72 20.86 8.92 8.52-3.86-5.61-4.36-10.11-6.48-15.34Z"/><path fill="url(#u)" d="M254.51 467.7a74.06 74.06 0 0 1 3.08 7.57c.65 2.37 6.9 8.79 10.23 11.21s3-.81.48-3.36-5.15-5.45-5.15-5.45l-3.91-10Z"/><path fill="url(#v)" d="M257.89 468a72.72 72.72 0 0 1 4.08 7.09c1 2.27 8 7.79 11.67 9.74s2.82-1.2 0-3.4-5.84-4.7-5.84-4.7l-5.24-9.4Z"/><path fill="url(#w)" d="M259.85 469a74.07 74.07 0 0 1 6.29 5.27c1.69 1.79 10.25 4.57 14.33 5.17s2.23-2.09-1.16-3.19-7.12-2.44-7.12-2.44l-8.18-7Z"/><path fill="url(#x)" d="M267.24 469.57c-4.16-5.05 9.57-3.93 10-5.71 1.45-1.48 1.46-1.85.63-2.26s-3 1.81-5.53.17-6.05-.85-8.22-3.15c-8.54-2.9-23.39 10.31-3.37 14Z"/><path fill="url(#y)" d="m255 471.78-.07-.07Z"/><path fill="url(#z)" d="m255 471.78-.07-.07Z"/><path fill="url(#A)" d="M261.85 458.21c-.09.27-2.8 7.68-11 8.53-9.71-12.31-19-24.43-27.88-37.58-3.52-4.18-5.74-10.89-3.52-17.21 2.32-2.53 8.47-5.6 10.9-6.5 9.7 16.26 21.77 36.16 31.5 52.76Z"/><path fill="url(#B)" d="M258.44 355.31c-.81 10.43-2.53 21.61-6.15 31.39-4.8 13.83-14.33 26.26-16.82 40.84L223 429.16c-3.53-4.16-5.74-10.91-3.52-17.21 1.83-10.7 4.12-21.37 7-31.79 3.12-11.36 6.18-26 15.67-34.09 11.3-10.28 16.58.67 16.29 9.24Z"/><g opacity=".8"><path fill="#59bc6e" d="M129.21 691.92c7.79-5.5 23.49-6.73 17.4-20.65-2.11-4.83-6.85-8.17-11.93-9.66-8.35-3-16.71 1.86-24.67-.73-12.57-11.54 26.79-24.07 7.83-38.86-4.67-3.63-10.6-6.09-14.18-10.94-4.79-6.48-3.29-14.71-6.52-21.66s-8.61 1-8 6c.51 4.44 3.18 8.38 4.08 12.76 3.85 18-19.7 25.08-15.21 31.68 6.74 4.92 18.58 4.45 21.64 13.71C101.27 664.06 93 674.51 103 684c6.6 5.64 9.49 7.93 8 16.68.87 4.94 11.94 9.48 13.29 3.37l7.48 9.85 1.91-3.53-7.91-11.89c.6-2.56 1.47-5.19 3.44-6.56Zm-6.59-6a22.35 22.35 0 0 1-1.29 6.11c6.25-20-13.78-13.46-16.93-28.55-2.83-9.42 0-19.25-.9-28.83-1.06-11.42-6.68-21.9-7.79-33.31 1.69 11.11 7.29 21.24 8.69 32.44 1.22 10-1.91 20.35 1.18 30.17 1.64 11.14 18.89 9.46 17.04 22.05Z" opacity=".8"/><path fill="#59bc6e" d="M199.93 642.3c-16.45 22.51-31.37-.35-33.48 9.64 7.66 29.39-12.09 12.75-19 30.57-1.09 6.25-1.66 9.07-7.83 11.07-2.95 2.41-1.51 11.14 2.9 9.84l-3.52 8.33h3l4.73-9.34c9.79-3.6 16.94 15.42 25.77 4 2.34-3.07 2.71-7.33 1.71-11.16-1.27-6.48-7.61-10.18-9-16.32 2.71-12.24 26 9 28.39-8.58.58-4.31-.09-9 1.7-13.08 2.39-5.4 8.34-7.32 11.64-11.87s-3.94-5.24-7.01-3.1Zm-2.26 7.1c-6.28 5.06-10.71 12.13-17.43 16.69-6 4.11-13.64 5.69-18.77 11.06-7.53 7.16 3 18.06-12.29 20.14 15.23-2.72 3.64-13.82 12.14-21.08 5.11-5.18 12.55-6.78 18.48-10.73 7-4.68 11.76-12.06 18.77-16.8Z" opacity=".8"/><path fill="#59bc6e" d="M161.13 571.33c-29.64-9.71-31.65-20.75-33.27-48.31-2.14-7.51-14.55-15.59-15-3.91 3.51 31.54 10.68 30-10.26 58.67-20.26 32.3 55.29 29.82 30.74 53.74-17.19 5.65-41.84 11-42.69 33.42-.36 30.36 35 8.07 45.93 26.72l-4.27 21.61 4.83 3.94 4.86-18.44c5.53 8 18.68-5 17-12.56-.62-2.92-3-5.19-4.05-8-3.25-14.88 15.43-24.2 4.14-44.78-9.12-13.09-18.55-23.41-4.7-37.53 6.89-7.62 27.61-18.9 6.74-24.57Zm-14.74 66.56c-4.83 18.56-25 18.84-7.29 42.08-22.2-25.6 10.16-27.11 5.73-50.51-1.78-15.38-12-28-16.07-42.65-4.63-16.8-2.62-34.57-6.79-51.44 5.4 17.72 3.19 36.91 9.36 54.43 5.67 15.7 17.28 30.54 15.06 48.09Z"/><path fill="#379968" d="M161.59 720.39c-2 39-61.31 26.24-46.74-10.12h44.52a24.12 24.12 0 0 1 2.22 10.12Z"/></g><path fill="#379968" d="M790.62 376.09c-61.76-1.11-61.75-92.08 0-93.18 61.77 1.09 61.76 92.09 0 93.18Zm0-76.23c-39.29.71-39.28 58.58 0 59.28 39.3-.7 39.29-58.58 0-59.28Zm-356.01-86.53c-36.63-.65-36.62-54.61 0-55.26 36.63.66 36.63 54.61 0 55.26Zm0-45.2c-23.3.41-23.3 34.73 0 35.15 23.3-.42 23.3-34.74 0-35.15ZM184.39 328.27c-22.89-.41-22.89-34.13 0-34.54 22.89.41 22.89 34.13 0 34.54Zm0-28.26c-14.49.08-14.49 21.9 0 22s14.49-21.92 0-22.01Z" opacity=".4"/><g opacity=".8"><path fill="url(#C)" d="M660.72 251.9q-9.09 8.79-26.23 10.9v16.83h-15.16v-16.38c-12.89-.64-28.19-4.71-37.74-12l8.34-18.33c8 5.88 19.19 9.78 29.4 10.67v-25.1c-12.63-3.36-22.65-5.46-30.62-15-15.07-21.8 4.56-47.48 30.62-48.46v-16.67h15.16v16.39q18.66 1.5 30.78 9.16l-7.58 18.49a60.58 60.58 0 0 0-23.2-7.82v25.55c12.52 3.19 22.43 5.22 30.32 14.65 8.19 10.11 6.11 28.13-4.09 37.12ZM611 192.31a23.67 23.67 0 0 0 8.33 4.06V175c-8.77 1.23-15.33 10.78-8.33 17.31Zm31.68 46.74c6.72-7.08.22-14.81-8.19-16.83V243q5.51-1.24 8.19-3.95Z"/><path fill="url(#D)" d="M862.06 635.08q-13.83 13.36-39.87 16.56v25.59h-23v-24.9c-19.6-1-42.85-7.15-57.38-18.28l12.68-27.86c12.2 8.93 29.17 14.87 44.7 16.21v-38.14c-19.2-5.11-34.44-8.31-46.55-22.73-22.81-33.67 6.6-71.74 46.55-73.67v-25.35h23v24.9q28.35 2.28 46.78 13.93l-11.52 28.1a92.11 92.11 0 0 0-35.26-11.88v38.83c19 4.85 34.08 7.93 46.09 22.27 12.43 15.34 9.27 42.76-6.22 56.42Zm-75.58-90.57q4.37 3.66 12.67 6.17v-32.44c-13.34 1.83-23.3 16.33-12.67 26.27Zm48.16 71c10.21-10.73.36-22.51-12.45-25.51v31.52q8.3-1.86 12.45-5.97Z"/><path fill="url(#E)" d="M139.84 299.34q-4.64 4.5-13.38 5.59v8.59h-7.74v-8.37c-6.58-.31-14.39-2.37-19.28-6.1l4.24-9.37a31.14 31.14 0 0 0 15 5.42v-12.81c-24.12-2.59-24.42-29.81-.05-32.38v-8.51h7.74v8.36q9.51.77 15.72 4.66l-3.86 9.44a31.08 31.08 0 0 0-11.85-4v13.05c14.28 1.51 24.84 14.36 13.46 26.43ZM114.4 269a12.34 12.34 0 0 0 4.26 2.06v-10.89c-4.5.59-7.83 5.46-4.26 8.83Zm16.22 23.83c3.43-3.62.1-7.56-4.19-8.59v10.59a8.4 8.4 0 0 0 4.19-2.03Z"/></g></g></g></svg>